<svg width="750" height="388" viewBox="0 0 750 388" fill="none" xmlns="http://www.w3.org/2000/svg">
<path d="M157 125.5C75.5945 108.568 0 58 0 0H750.001V387.759C742.741 390.509 750.484 370.017 696.343 310.807C642.203 251.597 553.256 284.323 514.401 269.333C447.682 243.592 442.857 191.881 399.068 165.397C349.727 132.917 218 138.188 157 125.5Z" fill="#136773"/>
<path opacity="0.2" d="M221.428 224.515C174.501 201.407 179.278 139.639 221.428 133.977C263.579 128.316 322.651 125.652 375.601 96.4311C439.396 61.2254 605.767 82.1688 644.839 133.977C681.061 182.008 760.867 234.754 736.43 290.508C714.036 341.599 636.953 312.588 602.892 275.342C568.832 238.096 492.92 281.126 427.185 265.051C380.462 253.625 350.391 216.174 322.842 199.514C291.801 179.083 261.005 244.004 221.428 224.515Z" fill="#D287E3"/>
</svg>
