<svg width="673" height="245" viewBox="0 0 673 245" fill="none" xmlns="http://www.w3.org/2000/svg">
<path d="M557.152 157.698C600.149 170.559 673.712 221 671.978 245L0.000793457 245V0.0972595C6.6001 -2.18727 53.4194 36.5326 53.4194 36.5326C102.631 85.7173 141.114 31.4294 204.19 45.5274C314.023 70.0759 293.289 115.32 359.454 138.121C433.196 163.533 503.001 141.5 557.152 157.698Z" fill="#136773"/>
<path opacity="0.2" d="M499.667 71.3221C532.423 87.4688 529.088 130.629 499.667 134.585C470.245 138.541 429.012 140.402 392.052 160.82C347.523 185.42 231.394 170.786 204.122 134.585C178.838 101.023 123.133 64.168 140.19 25.2101C155.821 -10.4898 209.626 9.78159 233.401 35.807C257.175 61.8324 310.163 31.7654 356.046 42.9977C388.659 50.9815 409.65 77.1506 428.879 88.7913C450.546 103.068 472.041 57.7046 499.667 71.3221Z" fill="#D287E3"/>
</svg>
