<svg width="24" height="24" viewBox="0 0 24 24" fill="none" xmlns="http://www.w3.org/2000/svg">
<path d="M20 6.99988H4C2.89543 6.99988 2 7.89531 2 8.99988V18.9999C2 20.1044 2.89543 20.9999 4 20.9999H20C21.1046 20.9999 22 20.1044 22 18.9999V8.99988C22 7.89531 21.1046 6.99988 20 6.99988Z" stroke="#F8F8F8" stroke-width="2" stroke-linecap="round" stroke-linejoin="round"/>
<path d="M16 20.9999V4.99988C16 4.46944 15.7893 3.96074 15.4142 3.58566C15.0391 3.21059 14.5304 2.99988 14 2.99988H10C9.46957 2.99988 8.96086 3.21059 8.58579 3.58566C8.21071 3.96074 8 4.46944 8 4.99988V20.9999" stroke="#F8F8F8" stroke-width="2" stroke-linecap="round" stroke-linejoin="round"/>
</svg>
