<svg width="24" height="24" viewBox="0 0 24 24" fill="none" xmlns="http://www.w3.org/2000/svg">
<path d="M5.61339 21.7334C4.51086 21.7335 3.45249 21.3001 2.66672 20.5267L2.58005 20.4401C2.18526 20.0548 1.87156 19.5945 1.65745 19.0861C1.44335 18.5777 1.33316 18.0317 1.33339 17.48C1.33199 16.8829 1.44912 16.2913 1.678 15.7398C1.90687 15.1882 2.24294 14.6875 2.66672 14.2667L13.0001 4.04672C14.05 2.95356 15.4873 2.31655 17.0023 2.27291C18.5174 2.22926 19.989 2.78248 21.1001 3.81338C21.6012 4.31325 21.9978 4.90786 22.2667 5.56255C22.5357 6.21725 22.6717 6.91894 22.6667 7.62672C22.6608 8.41719 22.4987 9.19869 22.1898 9.92633C21.8809 10.654 21.4313 11.3134 20.8667 11.8667L11.5801 21.0667C11.5223 21.1444 11.4484 21.2085 11.3634 21.2547C11.2784 21.3009 11.1843 21.3281 11.0877 21.3343C10.9912 21.3405 10.8944 21.3256 10.8042 21.2906C10.714 21.2557 10.6324 21.2015 10.5653 21.1319C10.4981 21.0622 10.4468 20.9788 10.4151 20.8874C10.3835 20.796 10.372 20.6987 10.3817 20.6025C10.3913 20.5062 10.4218 20.4132 10.4711 20.3299C10.5203 20.2465 10.587 20.175 10.6667 20.1201L19.9267 10.92C20.3665 10.4908 20.7171 9.97885 20.9585 9.41369C21.1999 8.84852 21.3273 8.24124 21.3334 7.62672C21.3382 7.09488 21.2369 6.56742 21.0355 6.0752C20.834 5.58298 20.5364 5.13587 20.1601 4.76005C19.2986 3.97529 18.1635 3.56006 16.999 3.6037C15.8345 3.64734 14.7337 4.14635 13.9334 4.99338L3.63339 15.2134C3.32986 15.5081 3.08806 15.8603 2.92209 16.2495C2.75613 16.6387 2.66931 17.057 2.66672 17.48C2.66529 17.8515 2.73763 18.2196 2.87954 18.5629C3.02144 18.9062 3.23009 19.218 3.49339 19.48L3.58005 19.5667C4.17655 20.116 4.96489 20.4091 5.77535 20.3829C6.58581 20.3567 7.35358 20.0134 7.91339 19.4267L16.8134 10.6267C16.9817 10.4565 17.1144 10.2545 17.2037 10.0324C17.293 9.81036 17.3371 9.57271 17.3334 9.33338C17.3348 9.12552 17.2949 8.91944 17.216 8.72715C17.137 8.53486 17.0205 8.36022 16.8734 8.21338C16.5367 7.90466 16.0921 7.7407 15.6356 7.75692C15.1791 7.77313 14.7473 7.96821 14.4334 8.30005L8.30005 14.38C8.17452 14.5047 8.0046 14.5744 7.8277 14.5738C7.65079 14.5731 7.48137 14.5023 7.35672 14.3767C7.23207 14.2512 7.16239 14.0813 7.16301 13.9044C7.16364 13.7275 7.23452 13.558 7.36005 13.4334L13.5201 7.33338C14.0847 6.75493 14.8541 6.42165 15.6623 6.40543C16.4705 6.38922 17.2527 6.69138 17.8401 7.24672C18.1102 7.52171 18.3225 7.84803 18.4645 8.20642C18.6065 8.5648 18.6752 8.94799 18.6667 9.33338C18.666 9.7484 18.5825 10.1591 18.4211 10.5414C18.2597 10.9238 18.0236 11.2701 17.7267 11.5601L8.85339 20.3867C7.99331 21.2454 6.82874 21.7295 5.61339 21.7334Z" fill="black"/>
</svg>
