<svg width="170" height="66" viewBox="0 0 170 66" fill="none" xmlns="http://www.w3.org/2000/svg">
<rect width="170" height="66" rx="4" fill="#AEAEB2"/>
<path d="M65.0664 27.9238H67.1719V36.1885H72.1621V38H65.0664V27.9238ZM78.082 36.4961C78.916 36.4961 79.5768 36.1885 80.0645 35.5732C80.5566 34.958 80.8027 34.083 80.8027 32.9482C80.8027 31.818 80.5566 30.9453 80.0645 30.3301C79.5768 29.7103 78.916 29.4004 78.082 29.4004C77.248 29.4004 76.5827 29.708 76.0859 30.3232C75.5892 30.9385 75.3408 31.8135 75.3408 32.9482C75.3408 34.083 75.5892 34.958 76.0859 35.5732C76.5827 36.1885 77.248 36.4961 78.082 36.4961ZM82.9082 32.9482C82.9082 34.7575 82.4001 36.1429 81.3838 37.1045C80.6227 37.8883 79.5221 38.2803 78.082 38.2803C76.6419 38.2803 75.5413 37.8883 74.7803 37.1045C73.7594 36.1429 73.249 34.7575 73.249 32.9482C73.249 31.1025 73.7594 29.7171 74.7803 28.792C75.5413 28.0081 76.6419 27.6162 78.082 27.6162C79.5221 27.6162 80.6227 28.0081 81.3838 28.792C82.4001 29.7171 82.9082 31.1025 82.9082 32.9482ZM91.2959 31.0684C91.1364 30.3802 90.7467 29.8994 90.127 29.626C89.7806 29.4756 89.3955 29.4004 88.9717 29.4004C88.1605 29.4004 87.4928 29.708 86.9688 30.3232C86.4492 30.9339 86.1895 31.8545 86.1895 33.085C86.1895 34.3245 86.472 35.2018 87.0371 35.7168C87.6022 36.2318 88.2448 36.4893 88.9648 36.4893C89.6712 36.4893 90.25 36.2865 90.7012 35.8809C91.1523 35.4707 91.4303 34.9352 91.5352 34.2744H89.2041V32.5928H93.4014V38H92.0068L91.7949 36.7422C91.3893 37.2207 91.0247 37.5579 90.7012 37.7539C90.1452 38.0957 89.4616 38.2666 88.6504 38.2666C87.3151 38.2666 86.2214 37.804 85.3691 36.8789C84.4805 35.9492 84.0361 34.6777 84.0361 33.0645C84.0361 31.4329 84.485 30.125 85.3828 29.1406C86.2806 28.1562 87.4678 27.6641 88.9443 27.6641C90.2249 27.6641 91.2526 27.9899 92.0273 28.6416C92.8066 29.2887 93.2533 30.0977 93.3672 31.0684H91.2959ZM99.875 36.4961C100.709 36.4961 101.37 36.1885 101.857 35.5732C102.35 34.958 102.596 34.083 102.596 32.9482C102.596 31.818 102.35 30.9453 101.857 30.3301C101.37 29.7103 100.709 29.4004 99.875 29.4004C99.041 29.4004 98.3757 29.708 97.8789 30.3232C97.3822 30.9385 97.1338 31.8135 97.1338 32.9482C97.1338 34.083 97.3822 34.958 97.8789 35.5732C98.3757 36.1885 99.041 36.4961 99.875 36.4961ZM104.701 32.9482C104.701 34.7575 104.193 36.1429 103.177 37.1045C102.416 37.8883 101.315 38.2803 99.875 38.2803C98.4349 38.2803 97.3343 37.8883 96.5732 37.1045C95.5524 36.1429 95.042 34.7575 95.042 32.9482C95.042 31.1025 95.5524 29.7171 96.5732 28.792C97.3343 28.0081 98.4349 27.6162 99.875 27.6162C101.315 27.6162 102.416 28.0081 103.177 28.792C104.193 29.7171 104.701 31.1025 104.701 32.9482Z" fill="black"/>
</svg>
