<svg width="32" height="32" viewBox="0 0 32 32" fill="none" xmlns="http://www.w3.org/2000/svg">
<path fill-rule="evenodd" clip-rule="evenodd" d="M3.20003 6.40002C2.91713 6.40002 2.64582 6.51241 2.44578 6.71244C2.24574 6.91248 2.13336 7.18379 2.13336 7.46669C2.13336 7.74959 2.24574 8.0209 2.44578 8.22094C2.64582 8.42098 2.91713 8.53336 3.20003 8.53336H28.8C29.0829 8.53336 29.3542 8.42098 29.5543 8.22094C29.7543 8.0209 29.8667 7.74959 29.8667 7.46669C29.8667 7.18379 29.7543 6.91248 29.5543 6.71244C29.3542 6.51241 29.0829 6.40002 28.8 6.40002H3.20003ZM2.13336 16C2.13336 15.7171 2.24574 15.4458 2.44578 15.2458C2.64582 15.0457 2.91713 14.9334 3.20003 14.9334H28.8C29.0829 14.9334 29.3542 15.0457 29.5543 15.2458C29.7543 15.4458 29.8667 15.7171 29.8667 16C29.8667 16.2829 29.7543 16.5542 29.5543 16.7543C29.3542 16.9543 29.0829 17.0667 28.8 17.0667H3.20003C2.91713 17.0667 2.64582 16.9543 2.44578 16.7543C2.24574 16.5542 2.13336 16.2829 2.13336 16V16ZM2.13336 24.5334C2.13336 24.2505 2.24574 23.9791 2.44578 23.7791C2.64582 23.5791 2.91713 23.4667 3.20003 23.4667H28.8C29.0829 23.4667 29.3542 23.5791 29.5543 23.7791C29.7543 23.9791 29.8667 24.2505 29.8667 24.5334C29.8667 24.8163 29.7543 25.0876 29.5543 25.2876C29.3542 25.4876 29.0829 25.6 28.8 25.6H3.20003C2.91713 25.6 2.64582 25.4876 2.44578 25.2876C2.24574 25.0876 2.13336 24.8163 2.13336 24.5334V24.5334Z" fill="#F8F8F8"/>
</svg>
