<svg width="12" height="20" viewBox="0 0 12 20" fill="none" xmlns="http://www.w3.org/2000/svg">
<path d="M6.36 8.77778C3.636 8.12222 2.76 7.44444 2.76 6.38889C2.76 5.17778 3.972 4.33333 6 4.33333C7.704 4.33333 8.556 4.93333 8.868 5.88889C9.012 6.33333 9.408 6.66667 9.912 6.66667H10.272C11.064 6.66667 11.628 5.94444 11.352 5.25556C10.848 3.94444 9.672 2.85556 7.8 2.43333V1.66667C7.8 0.744444 6.996 0 6 0C5.004 0 4.2 0.744444 4.2 1.66667V2.4C1.872 2.86667 0 4.26667 0 6.41111C0 8.97778 2.292 10.2556 5.64 11C8.64 11.6667 9.24 12.6444 9.24 13.6778C9.24 14.4444 8.652 15.6667 6 15.6667C4.02 15.6667 3 15.0111 2.604 14.0778C2.424 13.6444 2.016 13.3333 1.524 13.3333H1.188C0.384 13.3333 -0.18 14.0889 0.12 14.7778C0.804 16.3222 2.4 17.2333 4.2 17.5889V18.3333C4.2 19.2556 5.004 20 6 20C6.996 20 7.8 19.2556 7.8 18.3333V17.6111C10.14 17.2 12 15.9444 12 13.6667C12 10.5111 9.084 9.43333 6.36 8.77778Z" fill="black"/>
</svg>
