<svg width="24" height="24" viewBox="0 0 24 24" fill="none" xmlns="http://www.w3.org/2000/svg">
<path d="M5.24979 3C5.11062 3.00001 4.9742 3.03873 4.85579 3.11185C4.73737 3.18496 4.64164 3.28958 4.57929 3.414L1.57929 9.414C1.51441 9.54318 1.48825 9.68836 1.50395 9.83207C1.51965 9.97577 1.57655 10.1119 1.66779 10.224L11.4178 22.224C11.4881 22.3105 11.5768 22.3803 11.6775 22.4282C11.7782 22.4761 11.8883 22.5009 11.9998 22.5009C12.1113 22.5009 12.2214 22.4761 12.3221 22.4282C12.4227 22.3803 12.5115 22.3105 12.5818 22.224L22.3318 10.224C22.4233 10.112 22.4804 9.976 22.4964 9.83229C22.5124 9.68858 22.4865 9.54332 22.4218 9.414L19.4218 3.414C19.3593 3.28935 19.2634 3.18458 19.1447 3.11145C19.026 3.03832 18.8892 2.99973 18.7498 3H5.24979ZM3.46329 9L5.71329 4.5H8.78829L7.66329 9H3.46329ZM3.82479 10.5H7.69929L10.1188 18.246L3.82479 10.5ZM9.26979 10.5H14.7298L11.9998 19.2345L9.26979 10.5ZM16.3018 10.5H20.1748L13.8808 18.246L16.3018 10.5ZM20.5363 9H16.3363L15.2113 4.5H18.2863L20.5363 9ZM14.7898 9H9.20979L10.3348 4.5H13.6648L14.7898 9Z" fill="#F8F8F8"/>
</svg>
